<svg xmlns:xlink="http://www.w3.org/1999/xlink" xmlns="http://www.w3.org/2000/svg" class="chr-icon chr-icon--24" width="24"  height="24" ><defs><symbol id="social-twitter" viewBox="2 4 20 17">
    <path d="M21.9998024,5.94850271 C21.2639378,6.27899473 20.4732072,6.50243431 19.6431192,6.60281913 C20.4903254,6.08859695 21.1409646,5.27418342 21.4472639,4.3038956 C20.6544849,4.7801123 19.7764073,5.12586577 18.8417079,5.31226298 C18.0932607,4.50466524 17.0268825,4 15.8467486,4 C13.5805579,4 11.7434203,5.86056413 11.7434203,8.15526483 C11.7434203,8.48101542 11.7797051,8.7980981 11.8496412,9.10221596 C8.43952817,8.92893175 5.41611168,7.27461954 3.39235612,4.76062801 C3.03916454,5.37434599 2.83681824,6.08815245 2.83681824,6.84966948 C2.83681824,8.29128441 3.5611975,9.5631712 4.66217788,10.3083896 C3.98959225,10.2868309 3.35687602,10.099841 2.8036791,9.78861106 C2.80338648,9.80594689 2.80331333,9.8233568 2.80331333,9.8408408 C2.80331333,11.8541677 4.21768905,13.5336687 6.09476916,13.9154273 C5.75042931,14.0103299 5.38794707,14.0610779 5.01376005,14.0610779 C4.74930529,14.0610779 4.49231233,14.0350742 4.241757,13.9865487 C4.76393626,15.637453 6.27926567,16.8388111 8.07477813,16.8724456 C6.67042461,17.9869023 4.9012479,18.6511461 2.97881179,18.6511461 C2.64763982,18.6511461 2.32100345,18.6315136 2,18.5931378 C3.81592266,19.7721223 5.97267373,20.4599991 8.28985336,20.4599991 C15.8371653,20.4599991 19.9642689,14.1282728 19.9642689,8.63711197 C19.9642689,8.45693788 19.9602454,8.2777269 19.9524178,8.0995531 C20.7540486,7.51369099 21.449678,6.78180786 21.9998024,5.94850271"></path>
  </symbol></defs>
            <title>Twitter</title>
            <use xlink:href="#social-twitter" fill="#202125"></use>
            <image src="/chrome/static/images/fallback/icon-twitter.jpg" xlink:href="" alt="Twitter" width="24" height="24" class="svg-fallback" fill="#202125"></image>
            </svg>