<svg xmlns:xlink="http://www.w3.org/1999/xlink" xmlns="http://www.w3.org/2000/svg" class="chr-icon chr-icon--24" width="24"  height="18" ><defs><symbol id="social-youtube" viewBox="0 4 24 18">
    <path d="M23.74,7.6062 C23.74,7.6062 23.51,5.9562 22.79,5.2362 C21.88,4.2762 20.86,4.2762 20.39,4.2162 C17.04,3.9712 12,4.0012 12,4.0012 C12,4.0012 6.98,3.9712 3.63,4.2112 C3.17,4.2712 2.15,4.2712 1.24,5.2312 C0.52,5.9512 0.28,7.6012 0.28,7.6012 C0.28,7.6012 0.04,9.5462 0,11.4812 L0,13.5062 C0.04,15.4462 0.28,17.3812 0.28,17.3812 C0.28,17.3812 0.52,19.0312 1.24,19.7612 C2.15,20.7112 3.34,20.6812 3.88,20.7812 C5.76,20.9612 11.79,21.0012 12,21.0012 C12,21.0012 17.05,21.0112 20.4,20.7712 C20.86,20.7112 21.88,20.7112 22.79,19.7512 C23.51,19.0312 23.75,17.3812 23.75,17.3812 C23.75,17.3812 23.99,15.4412 24,13.5062 L24,11.4812 C23.98,9.5462 23.74,7.6062 23.74,7.6062 L23.74,7.6062 Z M9.57,16.0012 L9.57,8.9912 L16,12.6312 L9.57,16.0012 L9.57,16.0012 Z"></path>
  </symbol></defs>
            <title>Youtube</title>
            <use xlink:href="#social-youtube" fill="#202125"></use>
            <image src="/chrome/static/images/fallback/icon-youtube.jpg" xlink:href="" alt="Youtube" width="24" height="24" class="svg-fallback" fill="#202125"></image>
            </svg>